<svg width="20" height="20" viewBox="0 0 20 20" fill="none" xmlns="http://www.w3.org/2000/svg">
<path fill-rule="evenodd" clip-rule="evenodd" d="M17.65 0.00877192V0H19.35V0.00877192V0.0175096V0.0262133V0.034883V0.043519V0.0521212V0.06069V0.0692253V0.0777274V0.0861964V0.0946323V0.103035V0.111406V0.119744V0.128049V0.136322V0.144563V0.152772V0.160949V0.169094V0.177207V0.185289V0.193339V0.201359V0.209347V0.217304V0.225231V0.233126V0.240991V0.248826V0.25663V0.264404V0.272148V0.279863V0.287547V0.295202V0.302827V0.310423V0.31799V0.325527V0.333036V0.340516V0.347967V0.355389V0.362783V0.370149V0.377487V0.384796V0.392078V0.399332V0.406558V0.413757V0.420928V0.428073V0.43519V0.44228V0.449343V0.45638V0.46339V0.470374V0.477331V0.484262V0.491168V0.498047V0.5049V0.511728V0.518531V0.525308V0.53206V0.538787V0.545489V0.552166V0.558818V0.565446V0.57205V0.578629V0.585184V0.591715V0.598222V0.604706V0.611166V0.617602V0.624015V0.630405V0.636772V0.643116V0.649437V0.655735V0.662011V0.668264V0.674496V0.680705V0.686892V0.693057V0.6992V0.705322V0.711423V0.717502V0.72356V0.729597V0.735613V0.741608V0.747582V0.753536V0.75947V0.765383V0.771276V0.77715V0.783003V0.788837V0.794651V0.800446V0.806221V0.811977V0.817714V0.823432V0.829132V0.834813V0.840475V0.846119V0.851745V0.857352V0.862942V0.868514V0.874068V0.879604V0.885123V0.890625V0.89611V0.901577V0.907028V0.912462V0.917879V0.92328V0.928664V0.934032V0.939385V0.944721V0.950041V0.955346V0.960635V0.965908V0.971167V0.97641V0.981638V0.986851V0.99205V0.997234V1.0024V1.00756V1.0127V1.01783V1.02294V1.02804V1.03312V1.0382V1.04325V1.0483V1.05333V1.05835V1.06336V1.06835V1.07333V1.0783V1.08325V1.0882V1.09313V1.09805V1.10296V1.10785V1.11274V1.11761V1.12247V1.12732V1.13216V1.13699V1.14181V1.14662V1.15142V1.1562V1.16098V1.16575V1.1705V1.17525V1.17999V1.18472V1.18943V1.19414V1.19884V1.20353V1.20822V1.21289V1.21756V1.22221V1.22686V1.2315V1.23613V1.24076V1.24537V1.24998V1.25458V1.25918V1.26376V1.26834V1.27291V1.27748V1.28204V1.28659V1.29114V1.29568V1.30021V1.30474V1.30926V1.31377V1.31828V1.32279V1.32729V1.33178V1.33627V1.34075V1.34523V1.34971V1.35418V1.35864V1.3631V1.36756V1.37201V1.37646V1.38091V1.38535V1.38979V1.39422V1.39865V1.40308V1.40751V1.41193V1.41635V1.42077V1.42518V1.4296V1.43401V1.43842V1.44282V1.44723V1.45163V1.45603V1.46043V1.46483V1.46923V1.47363V1.47802V1.48242V1.48682V1.49121V1.49561V1.5V1.50439V1.50879V1.51318V1.51758V1.52198V1.52637V1.53077V1.53517V1.53957V1.54397V1.54837V1.55277V1.55718V1.56158V1.56599V1.5704V1.57482V1.57923V1.58365V1.58807V1.59249V1.59692V1.60135V1.60578V1.61021V1.61465V1.61909V1.62354V1.62799V1.63244V1.6369V1.64136V1.64582V1.65029V1.65477V1.65925V1.66373V1.66822V1.67271V1.67721V1.68172V1.68623V1.69074V1.69526V1.69979V1.70432V1.70886V1.71341V1.71796V1.72252V1.72709V1.73166V1.73624V1.74082V1.74542V1.75002V1.75463V1.75924V1.76387V1.7685V1.77314V1.77779V1.78244V1.78711V1.79178V1.79647V1.80116V1.80586V1.81057V1.81528V1.82001V1.82475V1.8295V1.83425V1.83902V1.8438V1.84858V1.85338V1.85819V1.86301V1.86784V1.87268V1.87753V1.88239V1.88726V1.89215V1.89704V1.90195V1.90687V1.9118V1.91675V1.9217V1.92667V1.93165V1.93664V1.94165V1.94667V1.9517V1.95675V1.9618V1.96688V1.97196V1.97706V1.98217V1.9873V1.99244V1.9976V2.00277V2.00795V2.01315V2.01836V2.02359V2.02883V2.03409V2.03937V2.04465V2.04996V2.05528V2.06062V2.06597V2.07134V2.07672V2.08212V2.08754V2.09297V2.09842V2.10389V2.10938V2.11488V2.1204V2.12593V2.13149V2.13706V2.14265V2.14826V2.15388V2.15952V2.16519V2.17087V2.17657V2.18229V2.18802V2.19378V2.19955V2.20535V2.21116V2.217V2.22285V2.22872V2.23462V2.24053V2.24646V2.25242V2.25839V2.26439V2.2704V2.27644V2.2825V2.28858V2.29468V2.3008V2.30694V2.31311V2.3193V2.3255V2.33174V2.33799V2.34426V2.35056V2.35688V2.36323V2.3696V2.37598V2.3824V2.38883V2.39529V2.40178V2.40828V2.41482V2.42137V2.42795V2.43455V2.44118V2.44783V2.45451V2.46121V2.46794V2.47469V2.48147V2.48827V2.4951V2.50195V2.50883V2.51574V2.52267V2.52963V2.53661V2.54362V2.55066V2.55772V2.56481V2.57193V2.57907V2.58624V2.59344V2.60067V2.60792V2.6152V2.62251V2.62985V2.63722V2.64461V2.65203V2.65948V2.66696V2.67447V2.68201V2.68958V2.69717V2.7048V2.71245V2.72014V2.72785V2.7356V2.74337V2.75117V2.75901V2.76687V2.77477V2.7827V2.79065V2.79864V2.80666V2.81471V2.82279V2.83091V2.83905V2.84723V2.85544V2.86368V2.87195V2.88026V2.88859V2.89696V2.90537V2.9138V2.92227V2.93077V2.93931V2.94788V2.95648V2.96512V2.97379V2.98249V2.99123V2.99334C19.3898 5.52671 19.1428 8.05842 18.2366 9.98654C17.7768 10.9649 17.1341 11.8163 16.2481 12.4209C15.8352 12.7026 15.3812 12.9226 14.8863 13.0777L19.3654 20H17.3405L13.0375 13.3499L13 13.35H12.9695H12.939H12.9086H12.878H12.8475H12.817H12.7865H12.7559H12.7254H12.6948H12.6643H12.6337H12.6031H12.5725H12.542H12.5113H12.4807H12.4501H12.4195H12.3889H12.3582H12.3276H12.2969H12.2663H12.2356H12.205H12.1743H12.1436H12.1129H12.0823H12.0516H12.0209H11.9902H11.9595H11.9288H11.8981H11.8673H11.8366H11.8059H11.7752H11.7444H11.7137H11.683H11.6522H11.6215H11.5908H11.56H11.5293H11.4985H11.4678H11.437H11.4063H11.3756H11.3448H11.3141H11.2833H11.2526H11.2218H11.191H11.1603H11.1295H11.0988H11.0681H11.0373H11.0066H10.9758H10.9451H10.9143H10.8836H10.8529H10.8221H10.7914H10.7607H10.7299H10.6992H10.6685H10.6378H10.6071H10.5763H10.5456H10.5149H10.4842H10.4535H10.4229H10.3922H10.3615H10.3308H10.3001H10.2695H10.2388H10.2082H10.1775H10.1469H10.1163H10.0856H10.055H10.0244H9.99378H9.96318H9.93259H9.90201H9.87143H9.84086H9.8103H9.77974H9.7492H9.71866H9.68814H9.65762H9.62711H9.59661H9.56612H9.53563H9.50516H9.4747H9.44425H9.41381H9.38338H9.35296H9.32255H9.29215H9.26176H9.23139H9.20103H9.17067H9.14033H9.11H9.07969H9.04938H9.01909H8.98881H8.95855H8.9283H8.89806H8.86783H8.83762H8.80742H8.77724H8.74707H8.71691H8.68677H8.65664H8.62653H8.59643H8.56635H8.53628H8.50623H8.4762H8.44618H8.41618H8.38619H8.35622H8.32626H8.29633H8.26641H8.2365H8.20662H8.17675H8.1469H8.11707H8.08725H8.05745H8.02767H7.99791H7.96817H7.93845H7.90875H7.87906H7.8494H7.81975H7.79013H7.76052H7.73094H7.70137H7.67182H7.6423H7.6128H7.58331H7.55385H7.52441H7.49499H7.4656H7.43622H7.40687H7.37754H7.34823H7.31894H7.28968H7.26044H7.23122H7.20202H7.17285H7.1437H7.11458H7.08548H7.0564H7.02735H6.99832H6.96932H6.94034H6.91139H6.88246H6.85356H6.82468H6.79583H6.76701H6.73821H6.70943H6.68069H6.65197H6.62327H6.5946H6.56596H6.53735H6.50877H6.48021H6.45168H6.42318H6.3947H6.36626H6.33784H6.30945H6.28109H6.25276H6.22446H6.19618H6.16794H6.13973H6.11154H6.08339H6.05527H6.02717H5.99911H5.97108H5.94308H5.91511H5.88717H5.85926H5.83139H5.80354H5.77573H5.74795H5.7202H5.69249H5.66481H5.63716H5.60954H5.58196H5.55441H5.52689H5.4994H5.47196H5.44454H5.41716H5.38981H5.3625H5.33522H5.30798H5.28077H5.2536H5.22646H5.19936H5.1723H5.14527H5.11827H5.09132H5.06439H5.03751H5.01066H4.98385H4.95708H4.93034H4.90365H4.87698H4.85036H4.82378H4.79723H4.77072H4.74425H4.71782H4.69143H4.66508H4.63876H4.61249H4.58625H4.56006H4.5339H4.50779H4.48171H4.45568H4.42969H4.40373H4.37782H4.35195H4.35V13.35V13.3855V13.4209V13.4564V13.4919V13.5274V13.5628V13.5983V13.6338V13.6693V13.7048V13.7403V13.7758V13.8114V13.8469V13.8824V13.9179V13.9534V13.9889V14.0244V14.0599V14.0954V14.1309V14.1664V14.2019V14.2374V14.2729V14.3084V14.3438V14.3793V14.4147V14.4502V14.4856V14.5211V14.5565V14.5919V14.6273V14.6627V14.6981V14.7335V14.7688V14.8042V14.8395V14.8748V14.9101V14.9454V14.9807V15.0159V15.0512V15.0864V15.1216V15.1568V15.192V15.2271V15.2623V15.2974V15.3325V15.3675V15.4026V15.4376V15.4726V15.5076V15.5426V15.5775V15.6124V15.6473V15.6822V15.717V15.7518V15.7866V15.8213V15.8561V15.8908V15.9254V15.9601V15.9947V16.0293V16.0638V16.0983V16.1328V16.1672V16.2017V16.236V16.2704V16.3047V16.339V16.3732V16.4074V16.4416V16.4757V16.5098V16.5439V16.5779V16.6119V16.6458V16.6797V16.7135V16.7474V16.7811V16.8149V16.8485V16.8822V16.9158V16.9493V16.9828V17.0163V17.0497V17.0831V17.1164V17.1497V17.1829V17.2161V17.2492V17.2823V17.3153V17.3483V17.3812V17.4141V17.4469V17.4797V17.5124V17.5451V17.5777V17.6102V17.6427V17.6752V17.7075V17.7399V17.7721V17.8043V17.8365V17.8686V17.9006V17.9326V17.9645V17.9964V18.0282V18.0599V18.0916V18.1232V18.1547V18.1862V18.2176V18.2489V18.2802V18.3114V18.3426V18.3737V18.4047V18.4356V18.4665V18.4973V18.528V18.5587V18.5893V18.6198V18.6503V18.6807V18.711V18.7412V18.7714V18.8015V18.8315V18.8614V18.8913V18.921V18.9508V18.9804V19.0099V19.0394V19.0688V19.0981V19.1273V19.1565V19.1856V19.2146V19.2435V19.2723V19.301V19.3297V19.3583V19.3867V19.4152V19.4435V19.4717V19.4998V19.5279V19.5559V19.5838V19.6116V19.6393V19.6669V19.6944V19.7218V19.7492V19.7764V19.8036V19.8306V19.8576V19.8845V19.9113V19.938V19.9645V19.991V20H2.65V19.991V19.9645V19.938V19.9113V19.8845V19.8576V19.8306V19.8036V19.7764V19.7492V19.7218V19.6944V19.6669V19.6393V19.6116V19.5838V19.5559V19.5279V19.4998V19.4717V19.4435V19.4152V19.3867V19.3583V19.3297V19.301V19.2723V19.2435V19.2146V19.1856V19.1565V19.1273V19.0981V19.0688V19.0394V19.0099V18.9804V18.9508V18.921V18.8913V18.8614V18.8315V18.8015V18.7714V18.7412V18.711V18.6807V18.6503V18.6198V18.5893V18.5587V18.528V18.4973V18.4665V18.4356V18.4047V18.3737V18.3426V18.3114V18.2802V18.2489V18.2176V18.1862V18.1547V18.1232V18.0916V18.0599V18.0282V17.9964V17.9645V17.9326V17.9006V17.8686V17.8365V17.8043V17.7721V17.7399V17.7075V17.6752V17.6427V17.6102V17.5777V17.5451V17.5124V17.4797V17.4469V17.4141V17.3812V17.3483V17.3153V17.2823V17.2492V17.2161V17.1829V17.1497V17.1164V17.0831V17.0497V17.0163V16.9828V16.9493V16.9158V16.8822V16.8485V16.8149V16.7811V16.7474V16.7135V16.6797V16.6458V16.6119V16.5779V16.5439V16.5098V16.4757V16.4416V16.4074V16.3732V16.339V16.3047V16.2704V16.236V16.2017V16.1672V16.1328V16.0983V16.0638V16.0293V15.9947V15.9601V15.9254V15.8908V15.8561V15.8213V15.7866V15.7518V15.717V15.6822V15.6473V15.6124V15.5775V15.5426V15.5076V15.4726V15.4376V15.4026V15.3675V15.3325V15.2974V15.2623V15.2271V15.192V15.1568V15.1216V15.0864V15.0512V15.0159V14.9807V14.9454V14.9101V14.8748V14.8395V14.8042V14.7688V14.7335V14.6981V14.6627V14.6273V14.5919V14.5565V14.5211V14.4856V14.4502V14.4147V14.3793V14.3438V14.3084V14.2729V14.2374V14.2019V14.1664V14.1309V14.0954V14.0599V14.0244V13.9889V13.9534V13.9179V13.8824V13.8469V13.8114V13.7758V13.7403V13.7048V13.6693V13.6338V13.5983V13.5628V13.5274V13.4919V13.4564V13.4209V13.3855V13.35V13.35H2.6312H2.60875H2.58636H2.56402H2.54173H2.5195H2.49732H2.4752H2.45313H2.43112H2.40916H2.38726H2.36541H2.34362H2.32189H2.30021H2.27859H2.25702H2.23551H2.21406H2.19267H2.17133H2.15005H2.12883H2.10766H2.08656H2.06551H2.04452H2.02358H2.00271H1.98189H1.96114H1.94044H1.9198H1.89923H1.87871H1.85825H1.83785H1.81751H1.79723H1.77702H1.75686H1.73676H1.71673H1.69675H1.67684H1.65699H1.6372H1.61748H1.59781H1.57821H1.55867H1.53919H1.51977H1.50042H1.48113H1.46191H1.44275H1.42365H1.40461H1.38564H1.36674H1.34789H1.32912H1.3104H1.29175H1.27317H1.25465H1.2362H1.21781H1.19949H1.18124H1.16305H1.14493H1.12687H1.10888H1.09096H1.0731H1.05531H1.03759H1.01994H1.00235H0.984833H0.967383H0.950001H0.932687H0.915441H0.898265H0.881157H0.864118H0.847149H0.830249H0.813418H0.796657H0.779967H0.763346H0.746796H0.730316H0.713906H0.697568H0.6813H0.665104H0.648979H0.632925H0.616943H0.601033H0.585195H0.569429H0.553736H0.538115H0.522567H0.507092H0.491689H0.47636H0.461105H0.445923H0.430815H0.41578H0.40082H0.385934H0.371123H0.356386H0.341724H0.327137H0.312626H0.298189H0.283828H0.269543H0.255334H0.2412H0.227143H0.213162H0.199258H0.185431H0.17168H0.158006H0.14441H0.130891H0.11745H0.104087H0.0908012H0.0775938H0.0644648H0.0514142H0.0384422H0.0255491H0.012735H0V11.65H0.012735H0.0255491H0.0384422H0.0514142H0.0644648H0.0775938H0.0908012H0.104087H0.11745H0.130891H0.14441H0.158006H0.17168H0.185431H0.199258H0.213162H0.227143H0.2412H0.255334H0.269543H0.283828H0.298189H0.312626H0.327137H0.341724H0.356386H0.371123H0.385934H0.40082H0.41578H0.430815H0.445923H0.461105H0.47636H0.491689H0.507092H0.522567H0.538115H0.553736H0.569429H0.585195H0.601033H0.616943H0.632925H0.648979H0.665104H0.6813H0.697568H0.713906H0.730316H0.746796H0.763346H0.779967H0.796657H0.813418H0.830249H0.847149H0.864118H0.881157H0.898265H0.915441H0.932687H0.950001H0.967383H0.984833H1.00235H1.01994H1.03759H1.05531H1.0731H1.09096H1.10888H1.12687H1.14493H1.16305H1.18124H1.19949H1.21781H1.2362H1.25465H1.27317H1.29175H1.3104H1.32912H1.34789H1.36674H1.38564H1.40461H1.42365H1.44275H1.46191H1.48113H1.50042H1.51977H1.53919H1.55867H1.57821H1.59781H1.61748H1.6372H1.65699H1.67684H1.69675H1.71673H1.73676H1.75686H1.77702H1.79723H1.81751H1.83785H1.85825H1.87871H1.89923H1.9198H1.94044H1.96114H1.98189H2.00271H2.02358H2.04452H2.06551H2.08656H2.10766H2.12883H2.15005H2.17133H2.19267H2.21406H2.23551H2.25702H2.27859H2.30021H2.32189H2.34362H2.36541H2.38726H2.40916H2.43112H2.45313H2.4752H2.49732H2.5195H2.54173H2.56402H2.58636H2.60875H2.6312H2.65V11.6324V11.598V11.5636V11.5292V11.4949V11.4606V11.4263V11.3921V11.3579V11.3238V11.2897V11.2556V11.2216V11.1876V11.1536V11.1197V11.0858V11.052V11.0182V10.9844V10.9507V10.9171V10.8834V10.8499V10.8163V10.7828V10.7494V10.716V10.6827V10.6494V10.6161V10.5829V10.5498V10.5167V10.4836V10.4506V10.4176V10.3847V10.3519V10.3191V10.2863V10.2537V10.221V10.1884V10.1559V10.1234V10.091V10.0587V10.0264V9.99412V9.96194V9.92981V9.89775V9.86574V9.83379V9.8019V9.77008V9.73832V9.70661V9.67498V9.6434V9.61189V9.58044V9.54906V9.51775V9.4865V9.45531V9.4242V9.39315V9.36216V9.33125V9.30041V9.26963V9.23893V9.20829V9.17773V9.14724V9.11682V9.08647V9.0562V9.026V8.99588V8.96582V8.93585V8.90595V8.87612V8.84638V8.81671V8.78712V8.7576V8.72817V8.69881V8.66953V8.64034V8.61122V8.58219V8.55324V8.52437V8.49558V8.46688V8.43826V8.40973V8.38128V8.35291V8.32463V8.29644V8.26834V8.24032V8.21239V8.18455V8.1568V8.12913V8.10156V8.07408V8.04669V8.01939V7.99219V7.96507V7.93805V7.91112V7.88429V7.85755V7.83091V7.80436V7.77791V7.75156V7.7253V7.69914V7.67308V7.64712V7.62126V7.59549V7.56983V7.54427V7.51881V7.49345V7.46819V7.44304V7.41799V7.39305V7.36821V7.34347V7.31884V7.29432V7.2699V7.24559V7.22138V7.19729V7.1733V7.14942V7.12566V7.102V7.07845V7.05502V7.03169V7.00848V6.98538V6.96239V6.93952V6.91676V6.89412V6.87159V6.84918V6.82688V6.8047V6.78264V6.7607V6.73887V6.71716V6.69558V6.67411V6.65276V6.63154V6.61043V6.58945V6.56859V6.54785V6.52724V6.50675V6.48638V6.46614V6.44603V6.42604V6.40618V6.38644V6.36684V6.34736V6.32801V6.30878V6.28969V6.27073V6.2519V6.2332V6.21463V6.1962V6.17789V6.15972V6.14169V6.12379V6.10602V6.08839V6.07089V6.05353V6.03631V6.01923V6.00228V5.98547V5.9688V5.95227V5.93588V5.91963V5.90352V5.88755V5.87173V5.85605V5.84051V5.82511V5.80986V5.79475V5.77979V5.76497V5.7503V5.73577V5.7214V5.70717V5.69309V5.67915V5.66537V5.65174V5.63825V5.62492V5.61174V5.59871V5.58583V5.57311V5.56054V5.54812V5.53586V5.52375V5.5118V5.5C2.65 4.29432 3.06096 3.42658 3.68138 2.8682C4.27458 2.33432 4.98593 2.15 5.5 2.15H17.65V2.14826V2.14265V2.13706V2.13149V2.12593V2.1204V2.11488V2.10938V2.10389V2.09842V2.09297V2.08754V2.08212V2.07672V2.07134V2.06597V2.06062V2.05528V2.04996V2.04465V2.03937V2.03409V2.02883V2.02359V2.01836V2.01315V2.00795V2.00277V1.9976V1.99244V1.9873V1.98217V1.97706V1.97196V1.96688V1.9618V1.95675V1.9517V1.94667V1.94165V1.93664V1.93165V1.92667V1.9217V1.91675V1.9118V1.90687V1.90195V1.89704V1.89215V1.88726V1.88239V1.87753V1.87268V1.86784V1.86301V1.85819V1.85338V1.84858V1.8438V1.83902V1.83425V1.8295V1.82475V1.82001V1.81528V1.81057V1.80586V1.80116V1.79647V1.79178V1.78711V1.78244V1.77779V1.77314V1.7685V1.76387V1.75924V1.75463V1.75002V1.74542V1.74082V1.73624V1.73166V1.72709V1.72252V1.71796V1.71341V1.70886V1.70432V1.69979V1.69526V1.69074V1.68623V1.68172V1.67721V1.67271V1.66822V1.66373V1.65925V1.65477V1.65029V1.64582V1.64136V1.6369V1.63244V1.62799V1.62354V1.61909V1.61465V1.61021V1.60578V1.60135V1.59692V1.59249V1.58807V1.58365V1.57923V1.57482V1.5704V1.56599V1.56158V1.55718V1.55277V1.54837V1.54397V1.53957V1.53517V1.53077V1.52637V1.52198V1.51758V1.51318V1.50879V1.50439V1.5V1.49561V1.49121V1.48682V1.48242V1.47802V1.47363V1.46923V1.46483V1.46043V1.45603V1.45163V1.44723V1.44282V1.43842V1.43401V1.4296V1.42518V1.42077V1.41635V1.41193V1.40751V1.40308V1.39865V1.39422V1.38979V1.38535V1.38091V1.37646V1.37201V1.36756V1.3631V1.35864V1.35418V1.34971V1.34523V1.34075V1.33627V1.33178V1.32729V1.32279V1.31828V1.31377V1.30926V1.30474V1.30021V1.29568V1.29114V1.28659V1.28204V1.27748V1.27291V1.26834V1.26376V1.25918V1.25458V1.24998V1.24537V1.24076V1.23613V1.2315V1.22686V1.22221V1.21756V1.21289V1.20822V1.20353V1.19884V1.19414V1.18943V1.18472V1.17999V1.17525V1.1705V1.16575V1.16098V1.1562V1.15142V1.14662V1.14181V1.13699V1.13216V1.12732V1.12247V1.11761V1.11274V1.10785V1.10296V1.09805V1.09313V1.0882V1.08325V1.0783V1.07333V1.06835V1.06336V1.05835V1.05333V1.0483V1.04325V1.0382V1.03312V1.02804V1.02294V1.01783V1.0127V1.00756V1.0024V0.997234V0.99205V0.986851V0.981638V0.97641V0.971167V0.965908V0.960635V0.955346V0.950041V0.944721V0.939385V0.934032V0.928664V0.92328V0.917879V0.912462V0.907028V0.901577V0.89611V0.890625V0.885123V0.879604V0.874068V0.868514V0.862942V0.857352V0.851745V0.846119V0.840475V0.834813V0.829132V0.823432V0.817714V0.811977V0.806221V0.800446V0.794651V0.788837V0.783003V0.77715V0.771276V0.765383V0.75947V0.753536V0.747582V0.741608V0.735613V0.729597V0.72356V0.717502V0.711423V0.705322V0.6992V0.693057V0.686892V0.680705V0.674496V0.668264V0.662011V0.655735V0.649437V0.643116V0.636772V0.630405V0.624015V0.617602V0.611166V0.604706V0.598222V0.591715V0.585184V0.578629V0.57205V0.565446V0.558818V0.552166V0.545489V0.538787V0.53206V0.525308V0.518531V0.511728V0.5049V0.498047V0.491168V0.484262V0.477331V0.470374V0.46339V0.45638V0.449343V0.44228V0.43519V0.428073V0.420928V0.413757V0.406558V0.399332V0.392078V0.384796V0.377487V0.370149V0.362783V0.355389V0.347967V0.340516V0.333036V0.325527V0.31799V0.310423V0.302827V0.295202V0.287547V0.279863V0.272148V0.264404V0.25663V0.248826V0.240991V0.233126V0.225231V0.217304V0.209347V0.201359V0.193339V0.185289V0.177207V0.169094V0.160949V0.152772V0.144563V0.136322V0.128049V0.119744V0.111406V0.103035V0.0946323V0.0861964V0.0777274V0.0692253V0.06069V0.0521212V0.043519V0.034883V0.0262133V0.0175096V0.00877192ZM17.6518 3.85H5.5C5.3474 3.85 5.05875 3.91568 4.81862 4.1318C4.60571 4.32342 4.35 4.70568 4.35 5.5V5.5118V5.52375V5.53586V5.54812V5.56054V5.57311V5.58583V5.59871V5.61174V5.62492V5.63825V5.65174V5.66537V5.67915V5.69309V5.70717V5.7214V5.73577V5.7503V5.76497V5.77979V5.79475V5.80986V5.82511V5.84051V5.85605V5.87173V5.88755V5.90352V5.91963V5.93588V5.95227V5.9688V5.98547V6.00228V6.01923V6.03631V6.05353V6.07089V6.08839V6.10602V6.12379V6.14169V6.15972V6.17789V6.1962V6.21463V6.2332V6.2519V6.27073V6.28969V6.30878V6.32801V6.34736V6.36684V6.38644V6.40618V6.42604V6.44603V6.46614V6.48638V6.50675V6.52724V6.54785V6.56859V6.58945V6.61043V6.63154V6.65276V6.67411V6.69558V6.71716V6.73887V6.7607V6.78264V6.8047V6.82688V6.84918V6.87159V6.89412V6.91676V6.93952V6.96239V6.98538V7.00848V7.03169V7.05502V7.07845V7.102V7.12566V7.14942V7.1733V7.19729V7.22138V7.24559V7.2699V7.29432V7.31884V7.34347V7.36821V7.39305V7.41799V7.44304V7.46819V7.49345V7.51881V7.54427V7.56983V7.59549V7.62126V7.64712V7.67308V7.69914V7.7253V7.75156V7.77791V7.80436V7.83091V7.85755V7.88429V7.91112V7.93805V7.96507V7.99219V8.01939V8.04669V8.07408V8.10156V8.12913V8.1568V8.18455V8.21239V8.24032V8.26834V8.29644V8.32463V8.35291V8.38128V8.40973V8.43826V8.46688V8.49558V8.52437V8.55324V8.58219V8.61122V8.64034V8.66953V8.69881V8.72817V8.7576V8.78712V8.81671V8.84638V8.87612V8.90595V8.93585V8.96582V8.99588V9.026V9.0562V9.08647V9.11682V9.14724V9.17773V9.20829V9.23893V9.26963V9.30041V9.33125V9.36216V9.39315V9.4242V9.45531V9.4865V9.51775V9.54906V9.58044V9.61189V9.6434V9.67498V9.70661V9.73832V9.77008V9.8019V9.83379V9.86574V9.89775V9.92981V9.96194V9.99412V10.0264V10.0587V10.091V10.1234V10.1559V10.1884V10.221V10.2537V10.2863V10.3191V10.3519V10.3847V10.4176V10.4506V10.4836V10.5167V10.5498V10.5829V10.6161V10.6494V10.6827V10.716V10.7494V10.7828V10.8163V10.8499V10.8834V10.9171V10.9507V10.9844V11.0182V11.052V11.0858V11.1197V11.1536V11.1876V11.2216V11.2556V11.2897V11.3238V11.3579V11.3921V11.4263V11.4606V11.4949V11.5292V11.5636V11.598V11.6324V11.65H4.35195H4.37782H4.40373H4.42969H4.45568H4.48171H4.50779H4.5339H4.56006H4.58625H4.61249H4.63876H4.66508H4.69143H4.71782H4.74425H4.77072H4.79723H4.82378H4.85036H4.87698H4.90365H4.93034H4.95708H4.98385H5.01066H5.03751H5.06439H5.09132H5.11827H5.14527H5.1723H5.19936H5.22646H5.2536H5.28077H5.30798H5.33522H5.3625H5.38981H5.41716H5.44454H5.47196H5.4994H5.52689H5.55441H5.58196H5.60954H5.63716H5.66481H5.69249H5.7202H5.74795H5.77573H5.80354H5.83139H5.85926H5.88717H5.91511H5.94308H5.97108H5.99911H6.02717H6.05527H6.08339H6.11154H6.13973H6.16794H6.19618H6.22446H6.25276H6.28109H6.30945H6.33784H6.36626H6.3947H6.42318H6.45168H6.48021H6.50877H6.53735H6.56596H6.5946H6.62327H6.65197H6.68069H6.70943H6.73821H6.76701H6.79583H6.82468H6.85356H6.88246H6.91139H6.94034H6.96932H6.99832H7.02735H7.0564H7.08548H7.11458H7.1437H7.17285H7.20202H7.23122H7.26044H7.28968H7.31894H7.34823H7.37754H7.40687H7.43622H7.4656H7.49499H7.52441H7.55385H7.58331H7.6128H7.6423H7.67182H7.70137H7.73094H7.76052H7.79013H7.81975H7.8494H7.87906H7.90875H7.93845H7.96817H7.99791H8.02767H8.05745H8.08725H8.11707H8.1469H8.17675H8.20662H8.2365H8.26641H8.29633H8.32626H8.35622H8.38619H8.41618H8.44618H8.4762H8.50623H8.53628H8.56635H8.59643H8.62653H8.65664H8.68677H8.71691H8.74707H8.77724H8.80742H8.83762H8.86783H8.89806H8.9283H8.95855H8.98881H9.01909H9.04938H9.07969H9.11H9.14033H9.17067H9.20103H9.23139H9.26176H9.29215H9.32255H9.35296H9.38338H9.41381H9.44425H9.4747H9.50516H9.53563H9.56612H9.59661H9.62711H9.65762H9.68814H9.71866H9.7492H9.77974H9.8103H9.84086H9.87143H9.90201H9.93259H9.96318H9.99378H10.0244H10.055H10.0856H10.1163H10.1469H10.1775H10.2082H10.2388H10.2695H10.3001H10.3308H10.3615H10.3922H10.4229H10.4535H10.4842H10.5149H10.5456H10.5763H10.6071H10.6378H10.6685H10.6992H10.7299H10.7607H10.7914H10.8221H10.8529H10.8836H10.9143H10.9451H10.9758H11.0066H11.0373H11.0681H11.0988H11.1295H11.1603H11.191H11.2218H11.2526H11.2833H11.3141H11.3448H11.3756H11.4063H11.437H11.4678H11.4985H11.5293H11.56H11.5908H11.6215H11.6522H11.683H11.7137H11.7444H11.7752H11.8059H11.8366H11.8673H11.8981H11.9288H11.9595H11.9902H12.0209H12.0516H12.0823H12.1129H12.1436H12.1743H12.205H12.2356H12.2663H12.2969H12.3276H12.3582H12.3889H12.4195H12.4501H12.4807H12.5113H12.542H12.5725H12.6031H12.6337H12.6643H12.6948H12.7254H12.7559H12.7865H12.817H12.8475H12.878H12.9086H12.939H12.9695H13C13.9764 11.65 14.7158 11.4084 15.2899 11.0166C15.8695 10.6212 16.3354 10.0351 16.6981 9.26346C17.3515 7.87318 17.6249 5.97696 17.6518 3.85Z" fill="black"/>
</svg>
