<svg width="23" height="24" viewBox="0 0 23 24" fill="none" xmlns="http://www.w3.org/2000/svg">
<path d="M22.7251 22.5258L17.2663 17.1007C19.0463 15.2727 20.1737 12.7961 20.1737 10.0246C20.1737 4.48157 15.6643 0 10.0868 0C4.50941 0 0 4.48157 0 10.0246C0 15.5676 4.50941 20.0491 10.0868 20.0491C12.2229 20.0491 14.2403 19.3415 15.9016 18.2211L21.479 23.7641C21.6571 23.941 21.8944 24 22.1317 24C22.3691 24 22.6064 23.941 22.7844 23.7641C23.0811 23.4103 23.0811 22.8796 22.7251 22.5258ZM1.78003 10.0246C1.78003 5.48403 5.5181 1.76904 10.0868 1.76904C14.6556 1.76904 18.3937 5.48403 18.3937 10.0246C18.3937 14.5651 14.6556 18.2801 10.0868 18.2801C5.5181 18.2801 1.78003 14.5651 1.78003 10.0246Z" fill="#313133"/>
</svg>
