<svg width="20" height="24" viewBox="0 0 20 24" fill="none" xmlns="http://www.w3.org/2000/svg">
<path d="M1.96742 7.67099C1.97408 7.53794 2.08389 7.43347 2.21711 7.43347H17.8589C17.9921 7.43347 18.1019 7.53793 18.1086 7.67099L18.844 22.3798C18.8512 22.5226 18.7373 22.6423 18.5944 22.6423H1.48167C1.3387 22.6423 1.22484 22.5226 1.23198 22.3798L1.96742 7.67099Z" stroke="#313133" stroke-width="1.5"/>
<path fill-rule="evenodd" clip-rule="evenodd" d="M13.9399 10.0253C13.9593 9.62919 13.9684 9.21132 13.9684 8.77215C13.9684 6.6169 13.7326 4.96517 13.1366 3.88433C12.8577 3.37857 12.5096 3.01677 12.0658 2.76966C11.6141 2.51813 10.9728 2.33545 10.038 2.33545C9.10316 2.33545 8.46183 2.51813 8.01014 2.76966C7.56638 3.01677 7.21822 3.37857 6.93936 3.88433C6.3434 4.96517 6.1076 6.6169 6.1076 8.77215C6.1076 9.21076 6.10778 9.62776 6.11276 10.0253H4.6126C4.6076 9.61714 4.6076 9.19857 4.6076 8.77215C4.6076 4.38883 5.51267 0.835449 10.038 0.835449C14.5633 0.835449 15.4684 4.38883 15.4684 8.77215C15.4684 9.19857 15.4605 9.61714 15.4419 10.0253H13.9399Z" fill="#313133"/>
</svg>
